<svg xmlns="http://www.w3.org/2000/svg" xmlns:xlink="http://www.w3.org/1999/xlink" version="1.1" width="256" height="256" viewBox="0 0 256 256" xml:space="preserve">

<defs>
</defs>
<g style="stroke: none; stroke-width: 0; stroke-dasharray: none; stroke-linecap: butt; stroke-linejoin: miter; stroke-miterlimit: 10; fill: none; fill-rule: nonzero; opacity: 1;" transform="translate(1.4065934065934016 1.4065934065934016) scale(2.81 2.81)" >
	<path d="M 78.362 27.04 c -4.492 -4.266 -10.521 -6.921 -17.174 -7.052 l 1.505 6.224 l 7.664 3.141 L 78.362 27.04 z" style="stroke: none; stroke-width: 1; stroke-dasharray: none; stroke-linecap: butt; stroke-linejoin: miter; stroke-miterlimit: 10; fill: rgb(241,241,241); fill-rule: nonzero; opacity: 1;" transform=" matrix(1 0 0 1 0 0) " stroke-linecap="round" />
	<polygon points="75.58,54.87 78.06,46.58 70.67,39.99 62.1,42.53 59.27,50.93 64.08,56.43 " style="stroke: none; stroke-width: 1; stroke-dasharray: none; stroke-linecap: butt; stroke-linejoin: miter; stroke-miterlimit: 10; fill: rgb(241,241,241); fill-rule: nonzero; opacity: 1;" transform="  matrix(1 0 0 1 0 0) "/>
	<polygon points="60.46,41.99 55.38,35.17 44.57,37.42 42.75,43.9 49.91,52.19 57.62,50.41 " style="stroke: none; stroke-width: 1; stroke-dasharray: none; stroke-linecap: butt; stroke-linejoin: miter; stroke-miterlimit: 10; fill: rgb(241,241,241); fill-rule: nonzero; opacity: 1;" transform="  matrix(1 0 0 1 0 0) "/>
	<path d="M 79.741 28.445 l -8.093 2.339 v 7.755 l 7.882 7.039 l 6.818 -0.513 C 86.2 38.676 83.734 32.862 79.741 28.445 z" style="stroke: none; stroke-width: 1; stroke-dasharray: none; stroke-linecap: butt; stroke-linejoin: miter; stroke-miterlimit: 10; fill: rgb(241,241,241); fill-rule: nonzero; opacity: 1;" transform=" matrix(1 0 0 1 0 0) " stroke-linecap="round" />
	<path d="M 59.413 20.014 c -7.895 0.384 -14.856 4.324 -19.306 10.261 l 4.146 5.443 l 10.843 -2.254 l 5.88 -6.986 L 59.413 20.014 z" style="stroke: none; stroke-width: 1; stroke-dasharray: none; stroke-linecap: butt; stroke-linejoin: miter; stroke-miterlimit: 10; fill: rgb(241,241,241); fill-rule: nonzero; opacity: 1;" transform=" matrix(1 0 0 1 0 0) " stroke-linecap="round" />
	<path d="M 59.624 70.531 v -0.077 l -0.989 -5.847 l -8.8 -2.62 l -5.467 3.501 c 4.221 3.477 9.557 5.645 15.404 5.848 l -0.136 -0.805 H 59.624 z" style="stroke: none; stroke-width: 1; stroke-dasharray: none; stroke-linecap: butt; stroke-linejoin: miter; stroke-miterlimit: 10; fill: rgb(241,241,241); fill-rule: nonzero; opacity: 1;" transform=" matrix(1 0 0 1 0 0) " stroke-linecap="round" />
	<path d="M 48.96 60.492 v -6.763 l -7.54 -8.723 l -6.433 0.662 c 0 7.34 3.083 13.956 8.019 18.637 L 48.96 60.492 z" style="stroke: none; stroke-width: 1; stroke-dasharray: none; stroke-linecap: butt; stroke-linejoin: miter; stroke-miterlimit: 10; fill: rgb(241,241,241); fill-rule: nonzero; opacity: 1;" transform=" matrix(1 0 0 1 0 0) " stroke-linecap="round" />
	<path d="M 64.493 58.119 l -4.178 6.035 l 1.215 7.183 c 7.034 -0.23 13.351 -3.282 17.853 -8.068 l -3.699 -6.667 L 64.493 58.119 z" style="stroke: none; stroke-width: 1; stroke-dasharray: none; stroke-linecap: butt; stroke-linejoin: miter; stroke-miterlimit: 10; fill: rgb(241,241,241); fill-rule: nonzero; opacity: 1;" transform=" matrix(1 0 0 1 0 0) " stroke-linecap="round" />
	<path d="M 59.746 20.905 c -0.031 0.031 -0.063 0.063 -0.095 0.094 l -0.238 -0.985 c -7.895 0.384 -14.856 4.324 -19.306 10.261 l 4.146 5.443 l 5.85 -1.216 c 1.95 -4.577 5.17 -9.108 9.642 -13.592 V 20.905 z" style="stroke: none; stroke-width: 1; stroke-dasharray: none; stroke-linecap: butt; stroke-linejoin: miter; stroke-miterlimit: 10; fill: rgb(219,219,219); fill-rule: nonzero; opacity: 1;" transform=" matrix(1 0 0 1 0 0) " stroke-linecap="round" />
	<path d="M 44.571 37.422 l -1.819 6.476 l 5.61 6.491 c -0.939 -4.701 -0.603 -9.355 1 -13.962 L 44.571 37.422 z" style="stroke: none; stroke-width: 1; stroke-dasharray: none; stroke-linecap: butt; stroke-linejoin: miter; stroke-miterlimit: 10; fill: rgb(219,219,219); fill-rule: nonzero; opacity: 1;" transform=" matrix(1 0 0 1 0 0) " stroke-linecap="round" />
	<path d="M 59.624 70.531 v -0.077 l -0.046 -0.271 c 0.015 0.016 0.031 0.033 0.046 0.049 v -0.018 c -2.163 -2.339 -4.051 -4.668 -5.617 -6.985 c 0 0 0 0 0 0 l -4.172 -1.242 l -5.467 3.501 c 4.221 3.477 9.557 5.645 15.404 5.848 l -0.136 -0.805 H 59.624 z" style="stroke: none; stroke-width: 1; stroke-dasharray: none; stroke-linecap: butt; stroke-linejoin: miter; stroke-miterlimit: 10; fill: rgb(219,219,219); fill-rule: nonzero; opacity: 1;" transform=" matrix(1 0 0 1 0 0) " stroke-linecap="round" />
	<path d="M 48.96 60.492 v -6.763 l -7.54 -8.723 l -6.433 0.662 c 0 7.34 3.083 13.956 8.019 18.637 L 48.96 60.492 z" style="stroke: none; stroke-width: 1; stroke-dasharray: none; stroke-linecap: butt; stroke-linejoin: miter; stroke-miterlimit: 10; fill: rgb(219,219,219); fill-rule: nonzero; opacity: 1;" transform=" matrix(1 0 0 1 0 0) " stroke-linecap="round" />
	<path d="M 48.96 53.729 v 6.763 l -5.955 3.814 c 0.435 0.413 0.879 0.815 1.342 1.197 l 5.487 -3.514 l 8.8 2.62 l 1.138 6.729 c 0.301 0.01 0.602 0.023 0.906 0.023 c 0.285 0 0.568 -0.012 0.851 -0.022 l -1.215 -7.184 l 4.178 -6.035 l 11.191 -1.517 l 3.7 6.668 c 0.039 -0.041 0.079 -0.082 0.117 -0.123 c 0.13 -0.138 0.255 -0.279 0.381 -0.42 c 1.822 -2.05 3.323 -4.391 4.419 -6.948 c 0.05 -0.119 0.1 -0.238 0.148 -0.358 c 0.064 -0.155 0.124 -0.311 0.184 -0.467 c 1.097 -2.915 1.672 -6.117 1.729 -9.602 c -0.001 -0.096 -0.005 -0.192 -0.007 -0.288 l -6.826 0.514 l -7.882 -7.039 v -7.755 l 8.093 -2.339 c -0.44 -0.487 -0.903 -0.952 -1.378 -1.404 l -8.005 2.313 l -7.664 -3.141 l -1.505 -6.224 c -0.17 -0.003 -0.339 -0.013 -0.51 -0.013 c -0.425 0 -0.847 0.012 -1.267 0.032 l 1.564 6.47 l -5.88 6.986 l -10.843 2.254 l -4.146 -5.443 c -0.002 0.002 -0.003 0.004 -0.005 0.006 c -1.663 2.281 -2.895 4.643 -3.735 7.08 c -0.056 0.165 -0.115 0.33 -0.168 0.496 c -0.046 0.143 -0.088 0.288 -0.132 0.431 c -0.078 0.261 -0.154 0.523 -0.224 0.787 c -0.026 0.098 -0.052 0.197 -0.077 0.295 c -0.087 0.345 -0.168 0.693 -0.241 1.044 c -0.007 0.032 -0.015 0.065 -0.021 0.097 c -0.082 0.403 -0.155 0.81 -0.218 1.219 c -0.007 0.043 -0.011 0.086 -0.018 0.128 c -0.05 0.336 -0.092 0.674 -0.129 1.014 c -0.015 0.136 -0.027 0.272 -0.04 0.408 c -0.024 0.256 -0.043 0.514 -0.059 0.772 c -0.009 0.15 -0.019 0.299 -0.026 0.449 c -0.017 0.386 -0.029 0.774 -0.029 1.164 l 6.433 -0.662 L 48.96 53.729 z M 62.104 42.533 l 8.569 -2.544 l 7.384 6.594 l -2.479 8.285 l -11.496 1.559 l -4.809 -5.496 L 62.104 42.533 z M 44.571 37.422 l 10.808 -2.246 l 5.079 6.815 l -2.837 8.416 l -7.707 1.779 l -7.162 -8.287 L 44.571 37.422 z" style="stroke: none; stroke-width: 1; stroke-dasharray: none; stroke-linecap: butt; stroke-linejoin: miter; stroke-miterlimit: 10; fill: rgb(87,89,93); fill-rule: nonzero; opacity: 1;" transform=" matrix(1 0 0 1 0 0) " stroke-linecap="round" />
	<path d="M 59.651 20.999 c 0.339 -0.341 0.674 -0.682 1.028 -1.023 c -0.425 0 -0.847 0.012 -1.267 0.032 L 59.651 20.999 z" style="stroke: none; stroke-width: 1; stroke-dasharray: none; stroke-linecap: butt; stroke-linejoin: miter; stroke-miterlimit: 10; fill: rgb(63,64,66); fill-rule: nonzero; opacity: 1;" transform=" matrix(1 0 0 1 0 0) " stroke-linecap="round" />
	<path d="M 48.96 53.729 v 6.763 l -5.955 3.814 c 0.435 0.413 0.879 0.815 1.342 1.197 c 0 0 0 0 0 0 l 5.487 -3.514 l 4.172 1.242 c -2.919 -4.318 -4.798 -8.599 -5.645 -12.841 l -5.61 -6.491 l 1.819 -6.476 l 4.791 -0.996 c 0.223 -0.642 0.469 -1.283 0.742 -1.923 l -5.85 1.216 l -4.146 -5.443 c -0.002 0.002 -0.003 0.004 -0.005 0.006 c -1.663 2.281 -2.894 4.643 -3.735 7.079 c -0.027 0.08 -0.055 0.159 -0.081 0.24 c -0.029 0.086 -0.059 0.171 -0.087 0.257 c -0.046 0.143 -0.088 0.288 -0.132 0.431 c -0.076 0.255 -0.15 0.512 -0.219 0.77 c -0.002 0.006 -0.003 0.011 -0.005 0.017 c -0.026 0.098 -0.052 0.197 -0.077 0.295 c -0.087 0.346 -0.168 0.693 -0.241 1.044 c -0.007 0.032 -0.015 0.064 -0.021 0.097 c -0.082 0.403 -0.155 0.81 -0.218 1.219 c -0.006 0.042 -0.011 0.085 -0.017 0.127 c -0.047 0.317 -0.086 0.637 -0.122 0.959 c -0.002 0.019 -0.005 0.038 -0.007 0.057 c -0.015 0.136 -0.027 0.272 -0.04 0.408 c -0.021 0.227 -0.037 0.455 -0.052 0.684 c -0.002 0.03 -0.005 0.059 -0.007 0.088 c -0.009 0.15 -0.019 0.299 -0.026 0.449 c -0.017 0.386 -0.029 0.774 -0.029 1.164 l 6.433 -0.662 L 48.96 53.729 z" style="stroke: none; stroke-width: 1; stroke-dasharray: none; stroke-linecap: butt; stroke-linejoin: miter; stroke-miterlimit: 10; fill: rgb(63,64,66); fill-rule: nonzero; opacity: 1;" transform=" matrix(1 0 0 1 0 0) " stroke-linecap="round" />
	<path d="M 59.773 71.337 c 0.301 0.01 0.602 0.023 0.906 0.023 c -0.379 -0.393 -0.739 -0.785 -1.101 -1.176 L 59.773 71.337 z" style="stroke: none; stroke-width: 1; stroke-dasharray: none; stroke-linecap: butt; stroke-linejoin: miter; stroke-miterlimit: 10; fill: rgb(63,64,66); fill-rule: nonzero; opacity: 1;" transform=" matrix(1 0 0 1 0 0) " stroke-linecap="round" />
	<path d="M 3.085 90 c -0.578 0 -1.047 -0.468 -1.047 -1.047 c 0 -0.578 0.469 -1.047 1.047 -1.047 c 45.647 0 82.783 -19.248 82.783 -42.907 S 48.732 2.093 3.085 2.093 c -0.578 0 -1.047 -0.469 -1.047 -1.047 S 2.507 0 3.085 0 c 46.801 0 84.876 20.187 84.876 45 C 87.961 69.813 49.886 90 3.085 90 z" style="stroke: none; stroke-width: 1; stroke-dasharray: none; stroke-linecap: butt; stroke-linejoin: miter; stroke-miterlimit: 10; fill: rgb(63,64,66); fill-rule: nonzero; opacity: 1;" transform=" matrix(1 0 0 1 0 0) " stroke-linecap="round" />
	<path d="M 3.085 67.102 c -0.578 0 -1.047 -0.468 -1.047 -1.047 c 0 -0.578 0.469 -1.047 1.047 -1.047 c 49.518 0 82.783 -9.966 82.783 -19.276 c 0 -9.309 -33.265 -19.276 -82.783 -19.276 c -0.578 0 -1.047 -0.469 -1.047 -1.047 s 0.469 -1.047 1.047 -1.047 c 41.721 0 84.876 7.993 84.876 21.369 S 44.807 67.102 3.085 67.102 z" style="stroke: none; stroke-width: 1; stroke-dasharray: none; stroke-linecap: butt; stroke-linejoin: miter; stroke-miterlimit: 10; fill: rgb(63,64,66); fill-rule: nonzero; opacity: 1;" transform=" matrix(1 0 0 1 0 0) " stroke-linecap="round" />
	<path d="M 58.664 78.95 c -0.182 0 -0.366 -0.047 -0.533 -0.146 c -0.497 -0.295 -0.66 -0.937 -0.366 -1.435 c 13.368 -22.522 13.376 -44.29 0.025 -64.698 c -0.317 -0.483 -0.181 -1.132 0.303 -1.449 c 0.484 -0.317 1.132 -0.181 1.449 0.303 c 13.825 21.132 13.834 43.644 0.025 66.913 C 59.369 78.767 59.022 78.95 58.664 78.95 z" style="stroke: none; stroke-width: 1; stroke-dasharray: none; stroke-linecap: butt; stroke-linejoin: miter; stroke-miterlimit: 10; fill: rgb(63,64,66); fill-rule: nonzero; opacity: 1;" transform=" matrix(1 0 0 1 0 0) " stroke-linecap="round" />
	<path d="M 33.364 86.895 c -0.138 0 -0.278 -0.028 -0.413 -0.085 c -0.531 -0.229 -0.776 -0.845 -0.547 -1.376 c 10.926 -25.371 10.951 -52.636 0.076 -81.04 c -0.206 -0.54 0.063 -1.145 0.603 -1.352 c 0.539 -0.205 1.145 0.063 1.352 0.603 c 11.076 28.93 11.039 56.727 -0.109 82.616 C 34.155 86.658 33.769 86.895 33.364 86.895 z" style="stroke: none; stroke-width: 1; stroke-dasharray: none; stroke-linecap: butt; stroke-linejoin: miter; stroke-miterlimit: 10; fill: rgb(63,64,66); fill-rule: nonzero; opacity: 1;" transform=" matrix(1 0 0 1 0 0) " stroke-linecap="round" />
</g>
</svg>